<?xml version="1.0" encoding="utf-8"?>
<!-- Generator: Adobe Illustrator 23.0.0, SVG Export Plug-In . SVG Version: 6.00 Build 0)  -->
<svg version="1.1" id="Camada_1" xmlns="http://www.w3.org/2000/svg" xmlns:xlink="http://www.w3.org/1999/xlink" x="0px" y="0px"
	 viewBox="0 0 423 76" style="enable-background:new 0 0 423 76;" xml:space="preserve">
<style type="text/css">
	.st0{fill:none;stroke:#FFFFFF;}
	.st1{fill:#FFFFFF;}
</style>
<image style="overflow:visible;" width="1167" height="286" xlink:href="263299B.jpg"  transform="matrix(0.5 0 0 0.5 -62.5 -392.2964)">
</image>
<path class="st0" d="M219.8,66.7v-55"/>
<g>
	<path class="st1" d="M341.5,40.6c0,1.5-0.3,2.9-0.9,4c-0.6,1.1-1.4,2-2.5,2.6c-1.1,0.6-2.4,0.9-3.9,0.9h-4l2.8-12h3.5
		c1.6,0,2.8,0.4,3.7,1.2C341,38,341.5,39.1,341.5,40.6z M334.3,45.9c0.9,0,1.6-0.2,2.3-0.6c0.7-0.4,1.2-1,1.5-1.8
		c0.4-0.8,0.6-1.7,0.6-2.8c0-0.8-0.2-1.5-0.7-1.9c-0.4-0.4-1-0.7-1.9-0.7h-1l-1.8,7.8H334.3z"/>
	<path class="st1" d="M352.3,45.2h-4.2l-1.5,2.8h-2.9l6.8-12h3.3l1.3,12h-2.7L352.3,45.2z M352.1,43.1l-0.2-2.9
		c-0.1-0.7-0.1-1.4-0.1-2.1v-0.3c-0.3,0.7-0.6,1.3-1,2.1l-1.7,3.2H352.1z"/>
	<path class="st1" d="M370.8,40.6c0,1.5-0.3,2.9-0.9,4c-0.6,1.1-1.4,2-2.5,2.6c-1.1,0.6-2.4,0.9-3.9,0.9h-4l2.8-12h3.5
		c1.6,0,2.8,0.4,3.7,1.2C370.4,38,370.8,39.1,370.8,40.6z M363.6,45.9c0.9,0,1.6-0.2,2.3-0.6c0.7-0.4,1.2-1,1.5-1.8
		c0.4-0.8,0.6-1.7,0.6-2.8c0-0.8-0.2-1.5-0.7-1.9c-0.4-0.4-1-0.7-1.9-0.7h-1l-1.8,7.8H363.6z"/>
	<path class="st1" d="M386.9,40.4c0,1.5-0.3,2.9-0.9,4.1c-0.6,1.2-1.4,2.1-2.4,2.8c-1,0.6-2.2,0.9-3.5,0.9c-1.5,0-2.7-0.4-3.6-1.2
		c-0.9-0.8-1.3-1.9-1.3-3.4c0-1.4,0.3-2.8,0.9-4c0.6-1.2,1.4-2.1,2.4-2.8s2.2-1,3.6-1c1.5,0,2.7,0.4,3.5,1.2
		C386.5,37.9,386.9,39,386.9,40.4z M381.9,38c-0.7,0-1.4,0.3-2,0.8c-0.6,0.5-1.1,1.2-1.4,2.1c-0.3,0.9-0.5,1.8-0.5,2.8
		c0,0.8,0.2,1.4,0.6,1.8c0.4,0.4,1,0.6,1.7,0.6s1.4-0.2,2-0.7c0.6-0.5,1.1-1.1,1.4-2c0.3-0.9,0.5-1.8,0.5-2.9c0-0.8-0.2-1.4-0.6-1.8
		C383.2,38.2,382.6,38,381.9,38z"/>
	<path class="st1" d="M398.7,44.5c0,1.1-0.4,2-1.3,2.7c-0.9,0.7-2.1,1-3.6,1c-1.3,0-2.4-0.2-3.2-0.7v-2.2c1.1,0.6,2.2,0.9,3.2,0.9
		c0.7,0,1.2-0.1,1.6-0.3c0.4-0.2,0.6-0.6,0.6-1c0-0.2,0-0.4-0.1-0.6c-0.1-0.2-0.2-0.3-0.3-0.5c-0.1-0.2-0.5-0.4-1.1-0.8
		c-0.8-0.5-1.4-1.1-1.7-1.6c-0.3-0.5-0.5-1.1-0.5-1.7c0-0.7,0.2-1.3,0.6-1.9c0.4-0.6,0.9-1,1.6-1.3c0.7-0.3,1.5-0.5,2.4-0.5
		c1.3,0,2.5,0.3,3.5,0.8l-1,1.9c-0.9-0.4-1.8-0.6-2.6-0.6c-0.5,0-0.9,0.1-1.2,0.4c-0.3,0.2-0.5,0.6-0.5,1c0,0.3,0.1,0.6,0.3,0.9
		c0.2,0.2,0.6,0.6,1.3,1c0.7,0.4,1.3,0.9,1.6,1.4C398.5,43.2,398.7,43.8,398.7,44.5z"/>
	<path class="st1" d="M337.2,63.7h-4.2l-1.5,2.8h-2.9l6.8-12h3.3l1.3,12h-2.7L337.2,63.7z M337,61.6l-0.2-2.9
		c-0.1-0.7-0.1-1.4-0.1-2.1v-0.3c-0.3,0.7-0.6,1.3-1,2.1l-1.7,3.2H337z"/>
	<path class="st1" d="M350.9,54.6c1.4,0,2.4,0.2,3.1,0.7c0.7,0.4,1,1.1,1,2c0,0.8-0.2,1.5-0.7,2c-0.5,0.5-1.2,0.9-2.1,1.1v0
		c0.6,0.1,1.1,0.4,1.4,0.8c0.4,0.4,0.5,0.9,0.5,1.5c0,1.2-0.5,2.2-1.4,2.9c-0.9,0.7-2.2,1-3.8,1h-4.7l2.8-12H350.9z M348.7,59.3h1.3
		c0.7,0,1.3-0.1,1.6-0.4c0.4-0.3,0.5-0.6,0.5-1.1c0-0.7-0.5-1.1-1.5-1.1h-1.4L348.7,59.3z M347.5,64.5h1.6c0.7,0,1.2-0.2,1.6-0.5
		c0.4-0.3,0.6-0.8,0.6-1.3c0-0.9-0.5-1.3-1.6-1.3h-1.5L347.5,64.5z"/>
	<path class="st1" d="M365.7,66.6h-7.3l2.8-12h7.3l-0.5,2.1h-4.6l-0.6,2.6h4.3l-0.5,2.1h-4.3l-0.7,3.1h4.6L365.7,66.6z"/>
	<path class="st1" d="M375.4,59.9h0.7c0.8,0,1.4-0.2,1.8-0.5c0.4-0.3,0.7-0.8,0.7-1.4c0-0.4-0.1-0.8-0.4-1c-0.3-0.2-0.7-0.3-1.3-0.3
		h-0.7L375.4,59.9z M374.9,62l-1.1,4.6h-2.7l2.8-12h3.2c1.4,0,2.5,0.3,3.2,0.8c0.7,0.6,1.1,1.4,1.1,2.4c0,0.9-0.2,1.6-0.7,2.2
		c-0.5,0.6-1.2,1.1-2.1,1.4l2.3,5.1h-3l-1.8-4.6H374.9z"/>
	<path class="st1" d="M389.6,66.6h-2.7l2.3-9.9H386l0.5-2.1h9l-0.5,2.1h-3.2L389.6,66.6z"/>
	<path class="st1" d="M409.8,58.9c0,1.5-0.3,2.9-0.9,4.1c-0.6,1.2-1.4,2.1-2.4,2.8c-1,0.6-2.2,0.9-3.5,0.9c-1.5,0-2.7-0.4-3.6-1.2
		c-0.9-0.8-1.3-1.9-1.3-3.4c0-1.4,0.3-2.8,0.9-4c0.6-1.2,1.4-2.1,2.4-2.8c1-0.6,2.2-1,3.6-1c1.5,0,2.7,0.4,3.5,1.2
		C409.4,56.4,409.8,57.5,409.8,58.9z M404.8,56.5c-0.7,0-1.4,0.3-2,0.8c-0.6,0.5-1.1,1.2-1.4,2.1c-0.3,0.9-0.5,1.8-0.5,2.8
		c0,0.8,0.2,1.4,0.6,1.8c0.4,0.4,1,0.6,1.7,0.6c0.7,0,1.4-0.2,2-0.7c0.6-0.5,1.1-1.1,1.4-2C406.8,61,407,60,407,59
		c0-0.8-0.2-1.4-0.6-1.8C406,56.7,405.5,56.5,404.8,56.5z"/>
	<path class="st1" d="M421.5,63c0,1.1-0.4,2-1.3,2.7c-0.9,0.7-2.1,1-3.6,1c-1.3,0-2.4-0.2-3.2-0.7v-2.2c1.1,0.6,2.2,0.9,3.2,0.9
		c0.7,0,1.2-0.1,1.6-0.3c0.4-0.2,0.6-0.6,0.6-1c0-0.2,0-0.4-0.1-0.6c-0.1-0.2-0.2-0.3-0.3-0.5c-0.1-0.2-0.5-0.4-1.1-0.8
		c-0.8-0.5-1.4-1.1-1.7-1.6c-0.3-0.5-0.5-1.1-0.5-1.7c0-0.7,0.2-1.3,0.6-1.9c0.4-0.6,0.9-1,1.6-1.3c0.7-0.3,1.5-0.5,2.4-0.5
		c1.3,0,2.5,0.3,3.5,0.8l-1,1.9c-0.9-0.4-1.8-0.6-2.6-0.6c-0.5,0-0.9,0.1-1.2,0.4c-0.3,0.2-0.5,0.6-0.5,1c0,0.3,0.1,0.6,0.3,0.9
		c0.2,0.2,0.6,0.6,1.3,1c0.7,0.4,1.3,0.9,1.6,1.4C421.4,61.7,421.5,62.3,421.5,63z"/>
	<path class="st1" d="M320.9,32.2l-1.1,0.8l0.1-0.1l-6.7,4.9l-2.7,6.7l1.1-0.8l-0.1,0.1l6.2-4.7L320.9,32.2z"/>
	<path class="st1" d="M321.2,30l-9.8-8.7l-7.9,6l9.7,8.7L321.2,30z"/>
	<path class="st1" d="M315.7,43.3L315.7,43.3l0.1-0.3V43l0.4-1l-6,4.6v0.1l-0.1,0.1l-0.4,0.9l0,0l-0.1,0.3h0l-1.7,3.9l1.4-1.1
		c0.1-0.1,0.2-0.2,0.4-0.3c1.1-0.9,2.2-1.8,3.4-2.7h0l0.6-0.6L315.7,43.3z"/>
	<path class="st1" d="M315.7,43.3L315.7,43.3L315.7,43.3L315.7,43.3z"/>
	<path class="st1" d="M308.5,46.2l2.8-6.8l-8,6l-2.6,6.7L308.5,46.2z"/>
	<path class="st1" d="M307.5,53.3L307.5,53.3l-0.7,0.6l-0.4,0.9l-0.1,0l-0.1,0.3l-1.7,3.9l1.4-1c0.1-0.1,0.2-0.2,0.4-0.3
		c1.1-0.9,2.2-1.8,3.3-2.7h0.1l0.6-0.6l1.9-4.1v0l0.1-0.4l-0.1,0l0.5-1L307.5,53.3z"/>
	<path class="st1" d="M291.6,16.7l8.3-5.5l-9.1-8.1l-8.5,5.3L291.6,16.7z"/>
	<path class="st1" d="M301.2,12.3l-8.4,5.5l9.4,8.4l8-6L301.2,12.3z"/>
	<path class="st1" d="M290.2,17.7l-9.4-8.3l-9.5,5.9l9.4,8.6L290.2,17.7z"/>
	<path class="st1" d="M280,68.3l-2.7-9.5l-8.4-4.3l2.5,8.9L280,68.3z"/>
	<path class="st1" d="M266.2,51.3l-2.8-9.9l-6.7-3.2l2.8,9.6L266.2,51.3z"/>
	<path class="st1" d="M273.7,46.5l-8.3-4.2l2.8,10l8.4,4.2L273.7,46.5z"/>
	<path class="st1" d="M266.8,53.4l-6.5-3.3l2.4,8.3l6.5,3.7L266.8,53.4z"/>
	<path class="st1" d="M262.2,27.9l8.1,3.5l0.3-0.3l8.3-6.3l-7.9-3.1L262.2,27.9z"/>
	<path class="st1" d="M305.3,53.7l1.9-4.6l-7.7,5.8l-0.9,2.4l0,0.3l0.1-0.1l0.2,1L305.3,53.7z"/>
	<path class="st1" d="M302.1,60.5l0.5-1v-0.1l1.3-2.9l-4.7,3.6l-0.3-1.5l-0.2-1l-0.1,0.1l-9.1,6.3l2.7,10.6l8.7-6.9l-1.2-5.4
		L302.1,60.5z"/>
	<path class="st1" d="M252.9,25.7l3,10.1l6.8,3.4L259.9,29c-0.6-0.3-1.1-0.6-1.7-0.9C256.4,27.3,254.7,26.4,252.9,25.7z"/>
	<path class="st1" d="M269.8,33.1l-8.1-3.6v0l3,10.6l8.1,3.9L269.8,33.1z"/>
	<path class="st1" d="M260.4,27.1l8.8-6.2l-6.5-2.6l-9.3,5.8L260.4,27.1z"/>
	<path class="st1" d="M282,25l1.6,1.5l8.1,3.2l-0.1,0l1.2,0.5l0.2,0.7v0l0.4,2l7.6-5.6l-9.6-8.5L282,25z"/>
	<path class="st1" d="M283.7,26.5l-3-1.2L272,32l10,4.3l9.7-6.6l0.1,0L283.7,26.5z"/>
	<path class="st1" d="M293.5,33.4l-0.1-0.6l-0.4-2v0l-9.9,6.8l2.8,11.7l9.6-6.6l-1.4-6.7l8.5,7.8l9.2-6.9l-9.7-8.6l-8.4,6.3
		L293.5,33.4z"/>
	<path class="st1" d="M281.5,38.3l-9.9-4.5l3.3,11.1l9.4,4.4L281.5,38.3z"/>
	<path class="st1" d="M298.4,55.9l-2.5-11.3l-9.6,6.6l2.8,11.2L298.4,55.9z"/>
	<path class="st1" d="M284.7,51.7l-9.2-4.7l3.1,10.6l8.7,4.4L284.7,51.7z"/>
	<path class="st1" d="M288,64.7l-8.7-4.9l2.7,9.6l8.4,4.9L288,64.7z"/>
</g>
<g>
	<path class="st1" d="M0,66.5c0.4,0,0.4-0.3,0.6-0.6c1.8-3.1,3.6-6.1,5.3-9.2c4.2-7.2,8.4-14.5,12.7-21.7c0.1-0.1,0.2-0.3,0.2-0.4
		c0,0,0.1,0,0.1,0c0,0,0.1,0,0.1,0c6.1,10.5,12.2,21,18.2,31.5c0.1,0.1,0.1,0.2,0.2,0.4c-0.4,0-0.7,0-1,0c-8.4,0-16.9,0-25.3,0
		c-3.4,0-6.7,0-10.1,0c-0.4,0-0.7,0-1.1-0.1L0,66.5z"/>
	<path class="st1" d="M133.6,34.9h1c10.7,0,21.4,0,32.2,0c0.7,0,1.1,0.2,1.4,0.8c0.4,0.8,0.9,1.5,1.4,2.4c0.2-0.4,0.4-0.7,0.6-1
		c0.3-0.5,0.6-1,0.9-1.5c0.2-0.5,0.6-0.7,1.1-0.7c3.3,0,6.6,0,9.9,0c3.1,0,6.2,0,9.3,0c0.6,0,0.9,0.2,1.2,0.7c1.1,2,2.3,4,3.5,6.1
		c0.1,0.3,0.3,0.5,0.4,0.9c-0.8,0.1-1.6,0.1-2.3,0.1c-0.8,0-1.5,0-2.3,0H185c0,1.4,0,2.7,0,4.1c0,1.3,0,2.6,0,3.9v15.9
		c-0.6,0.2-8.6,0.2-9.6,0c0-3.9,0-7.9,0-11.9v-12c-3.9,0-7.7,0-11.6,0v23.9c-0.7,0.2-8.3,0.2-9.6,0.1c0-1,0-2,0-2.9c0-1,0-2,0-3
		V42.7c-0.3,0-0.6-0.1-0.9-0.1c-2.2,0-4.5,0-6.7,0c-0.6,0-0.9-0.2-1.2-0.7c-0.6-1.2-1.3-2.3-2-3.4c0,0-0.1,0-0.1,0c0,0,0,0,0,0
		c0,0.1,0,0.2,0,0.3c0,9.2,0,18.4,0,27.5c0,0,0,0-0.1,0.1c-0.2,0-0.4,0.1-0.5,0.1c-2.5,0-4.9,0-7.4,0c-0.4,0-0.7-0.1-0.9-0.4
		c-4.9-5.3-9.9-10.6-14.8-16c-0.3-0.4-0.7-0.7-1.1-1.1c-0.1,1-0.1,1.9-0.1,2.9c0,1,0,1.9,0,2.8v11.5c-0.6,0.2-8.5,0.3-9.8,0.1
		l-2.6-6.3H105c-5.1,0-10.3,0-15.4,0c-0.6,0-1,0.2-1.2,0.8c-0.9,1.7-1.9,3.5-2.9,5.2c-0.2,0.3-0.4,0.5-0.8,0.5c-3.2,0-6.3,0-9.5,0
		c-0.1,0-0.2,0-0.4-0.1c0.1-0.2,0.2-0.4,0.3-0.6c6-10.2,12-20.3,18.1-30.5c0.3-0.5,0.6-0.6,1.1-0.6c3.1,0,6.1,0,9.2,0
		c0.5,0,0.8,0.2,1,0.7c1.2,2.8,2.5,5.6,3.7,8.4c0.1,0.2,0.2,0.4,0.3,0.7l0.2,0v-9.7h0.9c2.3,0,4.5,0,6.8,0c0.6,0,0.9,0.2,1.3,0.6
		c4.9,5.3,9.9,10.6,14.9,15.9c0.3,0.3,0.6,0.6,1,1c0-0.5,0-0.7,0-1c0-5.2,0-10.4,0-15.5L133.6,34.9z M99,43.2
		c-0.2,0.2-0.3,0.3-0.3,0.4c-2.2,3.6-4.3,7.3-6.4,10.9c0,0,0,0,0,0.1c0,0,0,0,0,0.1h11.3C102.1,50.9,100.6,47.1,99,43.2L99,43.2z"/>
	<path class="st1" d="M20.8,36l40.9-4.9l0.1,0.2l-24.6,33C36.7,63.9,21.1,36.9,20.8,36z"/>
	<path class="st1" d="M37.5,2c5.6,9.8,11.2,19.4,16.8,29.2c-1.1,0.1-2.1,0.3-3,0.4c-2.8,0.3-5.7,0.7-8.5,1c-2.7,0.3-5.5,0.7-8.2,1
		c-2.7,0.3-5.5,0.7-8.2,1c-1.8,0.2-3.7,0.4-5.5,0.7c-0.4,0.1-0.9,0-1.2-0.3c-0.5-0.5-0.5-0.7-0.2-1.3c5.9-10.3,11.8-20.7,17.7-31
		C37.2,2.4,37.3,2.3,37.5,2z"/>
	<path class="st1" d="M74.9,66.7h-0.9c-11.7,0-23.4,0-35.2,0c-0.5,0-0.9,0-1.2-0.6c-0.2-0.5-0.2-0.9,0.1-1.3
		c0.6-0.8,1.1-1.5,1.7-2.3c6-8.1,12.1-16.2,18.1-24.3c0.2-0.2,0.3-0.4,0.6-0.7L74.9,66.7z"/>
</g>
</svg>
