<svg id="Camada_1" data-name="Camada 1" xmlns="http://www.w3.org/2000/svg" viewBox="0 0 5271.34 840.72"><defs><style>.cls-1{fill:#fff;}</style></defs><title>VETORIZADO</title><path class="cls-1" d="M-2887.48-3131.4c4.95.16,5.48-4.36,7.17-7.24q34.82-59.49,69.38-119.14,82.24-141.15,164.53-282.27c1-1.69,2.11-3.31,3-4.67a9,9,0,0,1,1.44-.18c.33,0,.81.08.93.29q118.58,204.9,237.07,409.84c.79,1.37,1.39,2.85,2.76,5.68-5,.19-8.81.45-12.62.45q-164.4,0-328.78,0-65.46,0-130.92,0c-4.64,0-9.29-.48-13.94-.74Z" transform="translate(2887.48 3968.98)"/><path class="cls-1" d="M2383.86-3151.4c-.69,1.13-1.34,2.29-2.09,3.38-6.34,9.18-14,15.58-26.24,14.8-10.28-.66-20.64,0-31-.21a24.19,24.19,0,0,1-8.67-1.54c-14.75-6.15-15.74-8.57-12.15-29.41,3.37,1.76,6.47,3.26,9.44,5,9.14,5.23,18.81,8.48,29.48,8a31.83,31.83,0,0,0,6.9-.91c4.09-1.15,7.93-3.71,7.63-8.07-.22-3.13-2.53-6.8-5-8.93-2.93-2.49-7-3.66-10.68-5.23-7.64-3.3-15.59-6-22.93-9.83-12.6-6.6-19.25-17.27-18.28-31.75.86-12.88,10.06-23.41,24.3-27.27,19.43-5.26,38.15-2.26,56.56,6.17v20.88c-3-.85-5.37-1.51-7.76-2.24-6.36-1.93-12.64-4.15-19.09-5.74a39.3,39.3,0,0,0-10.89-.87c-7.62.33-13.16,3.64-13.51,8-.56,6.85,4.94,8.88,9.74,11,6.68,3,13.5,5.69,20.34,8.29,9.87,3.76,18,9.62,23.89,18.51Z" transform="translate(2887.48 3968.98)"/><path class="cls-1" d="M-1150.95-3541.19h13q209,0,417.89-.23c9,0,13.94,2.76,17.82,10.61,5,10.1,11.13,19.62,17.71,31,3.1-5.15,5.46-9,7.72-12.87,3.86-6.62,8-13.08,11.37-20,3.15-6.54,7.56-8.74,14.87-8.68,42.65.34,85.3.16,128,.16,40.32,0,80.65.25,121-.21,7.87-.09,11.95,2.59,15.65,9.18,14.83,26.44,30.21,52.56,45.31,78.84,1.91,3.33,3.35,6.94,5.71,11.9-11,1.61-20.53.7-30,.86-10,.16-20,0-30,0h-89.22c-.2,18.26-.07,35.45-.1,52.64q0,25.5,0,51v206.43c-8.17,2.28-112.18,2.77-124.79.59,0-51.25,0-102.78,0-154.3V-3440.4c-50.48-.37-99.91-.13-150.58-.18v310.12c-8.48,2.16-107.54,2.83-124.18,1-.08-12.61-.2-25.44-.24-38.28,0-13,0-26,0-39v-233.07c-4.11-.29-7.6-.73-11.09-.74-29-.05-58-.28-87,.15-7.6.11-12.12-2-15.8-8.9-8.09-15.24-17.15-30-25.73-44.76a9.65,9.65,0,0,0-1.59.43c-.25.13-.56.39-.6.63a26,26,0,0,0-.45,3.92q-.17,179-.32,357.89c0,.27-.36.54-1.13,1.64a49.14,49.14,0,0,1-6.88.89c-32,.07-64,0-96,.13a15.08,15.08,0,0,1-12.16-5.33q-96.18-103.73-192.57-207.26a134.52,134.52,0,0,0-14.66-14c-1.64,12.69-1.21,25.16-1.28,37.6s0,24.66,0,37v149.65c-7.25,2.72-110.49,3.67-127.82,1.24l-33.21-82.25h-10.3c-66.65,0-133.3.15-199.94-.21-8.2,0-12.45,2.67-16.21,9.75-12,22.65-24.85,44.88-37.19,67.36-2.3,4.18-4.89,6.49-10,6.47-41-.18-82-.11-123-.16a33.54,33.54,0,0,1-4.75-.79c1.29-2.7,2.22-5.06,3.49-7.21q117.39-198.24,234.73-396.5c3.47-5.87,7.25-8.22,14.21-8.16q59.48.53,119,0c7.09-.06,10.58,2.19,13.39,8.71,15.82,36.7,32.12,73.19,48.28,109.74,1.27,2.87,2.76,5.64,4.15,8.46l2.14-.4v-126.35h12c29.32,0,58.65.22,88-.15,7.29-.1,12.27,2,17.3,7.42q96.27,103.65,193,206.88c3.57,3.82,7.17,7.62,12.6,13.38.26-5.86.55-9.3.55-12.73q0-101,0-201.94Zm-449.82,108c-2.28,2.95-3.39,4.12-4.19,5.47q-41.93,70.86-83.78,141.77c-.11.18.12.6.26.88a5,5,0,0,0,.43.67h146.94C-1561-3334.19-1580.56-3382.83-1600.77-3433.24Z" transform="translate(2887.48 3968.98)"/><path class="cls-1" d="M-2617.8-3527.36l530.85-64,1.17,1.95L-2405.19-3160C-2410.43-3165-2613.42-3515.5-2617.8-3527.36Z" transform="translate(2887.48 3968.98)"/><path class="cls-1" d="M-2400.14-3969c73.25,126.89,145.55,252.15,218.73,378.91-14.35,1.8-26.73,3.41-39.13,4.91q-55.52,6.73-111,13.39c-35.69,4.28-71.39,8.46-107.08,12.77s-71.35,8.75-107,13.1q-35.67,4.35-71.36,8.58c-5.73.68-11.2.58-15.71-4.15-6.3-6.61-6.91-9.42-2.31-17.47q115-201.26,230-402.47C-2403.95-3963.39-2402.59-3965.24-2400.14-3969Z" transform="translate(2887.48 3968.98)"/><path class="cls-1" d="M-1914.86-3128.62h-12.21q-228.47,0-456.94.08c-6.67,0-12.22-.27-15.66-7.49-3-6.28-2.38-11.46,1.53-16.74q11-14.85,22-29.71,117.52-158.05,235.06-316.08c2-2.63,4-5.18,7.2-9.21Z" transform="translate(2887.48 3968.98)"/><path class="cls-1" d="M269.78-3397.19v66.59c-9.38,3-18.15.8-27.57,1.62v-112.47c7.46,0,14.43-.57,21.22.25,3.13.38,6.52,3,8.76,5.47,16,17.88,31.65,36,47.43,54.05,1.72,2,3.5,3.87,6,6.61,3.16-7.91,1.25-15.13,1.61-22.1s.07-14,.07-21v-22.57h27.78v110.77a62.88,62.88,0,0,1-21.7.35c-2.72-.39-5.31-3.67-7.43-6.1-16-18.31-31.82-36.75-47.74-55.12-2.09-2.4-4.37-4.63-6.56-6.94Z" transform="translate(2887.48 3968.98)"/><path class="cls-1" d="M1404.89-3440.71a16.43,16.43,0,0,1,2.55-.63c20.85-1.16,20.89-1.19,34.72,14.49,12.77,14.49,25.43,29.1,38.16,43.64,2.29,2.61,4.67,5.16,7,7.74l1.93-.87v-64.38a117.22,117.22,0,0,1,27.89,0v110.36c-7.08,2.42-14.42,1.61-21.49.82-2.7-.3-5.37-3.56-7.48-6q-25.31-29-50.34-58.21c-1.25-1.46-1.92-3.42-2.86-5.15-1,.52-2,1-3,1.54v67.62h-26.74C1403.07-3337.44,1402.76-3430.32,1404.89-3440.71Z" transform="translate(2887.48 3968.98)"/><path class="cls-1" d="M319.89-3179.65v-64.43c9.56-1.48,18.27-1.13,27.75-.17v110.83c-7.56,0-14.82.42-22-.24-2.4-.22-4.94-2.85-6.77-5q-24.92-28.63-49.56-57.5c-1.49-1.74-2.73-3.7-5-6.83-3.23,9.1-1.53,16.34-1.83,23.38-.32,7.65-.07,15.32-.07,23v22.5H234.74v-110c7.81-1.63,15.77-1.19,23.53-.34,2.7.29,5.37,3.6,7.51,6,15.17,17.24,30.2,34.62,45.29,51.94,2.28,2.62,4.63,5.18,6.95,7.77Z" transform="translate(2887.48 3968.98)"/><path class="cls-1" d="M858-3376.52V-3440c9.41-2.76,18-.79,26.22-1.42,2.63,7.19,3.52,94.86,1.26,111.19-6.91,2.22-14.25,1.51-21.33.68-2.68-.32-5.29-3.66-7.4-6.08-16.21-18.56-32.27-37.24-48.4-55.86a19.55,19.55,0,0,0-7.84-5.78v67.59H773.79c-2.15-8.19-2.31-101.46,0-111.69,6.93,0,14.24-.61,21.35.29,3.06.38,6.21,3.47,8.5,6.05,15.26,17.17,30.29,34.54,45.41,51.83,2.17,2.48,4.43,4.87,6.65,7.3Z" transform="translate(2887.48 3968.98)"/><path class="cls-1" d="M1845.27-3329.07v-110.48c1-.72,1.47-1.43,2-1.44,21.92-.2,44-2.77,65.68,1.67,38,7.78,56.42,50.57,36.51,83.84-9.93,16.58-25.88,23.25-44,25.84a103,103,0,0,1-14,.55C1876.49-3329,1861.53-3329.07,1845.27-3329.07Zm28.68-20.66c8.36,0,15.68.59,22.88-.11,16.48-1.61,27.69-11.61,29.93-27.17a56.42,56.42,0,0,0-.73-19.69c-2.52-11.66-10.4-19.13-21.88-22.26-9.68-2.64-19.58-2.54-30.2-1.41Z" transform="translate(2887.48 3968.98)"/><path class="cls-1" d="M1309.75-3326.75c-16.94-.86-32.33-5.18-45.1-16.7-26.49-23.9-25.29-63.24,2.54-85.56,23.45-18.81,62.26-19.06,85.56,0,17.72,14.45,25.7,33.35,20.45,55.91-5.39,23.14-21.29,37.07-43.8,43.38C1323.07-3328,1316.31-3327.72,1309.75-3326.75Zm0-24.4c18.94,1.19,36-12.13,35.73-34.16-.21-20.33-14.1-33.86-35.06-33.94-21.52-.08-35.85,13.67-35.75,34.28C1274.76-3364.63,1288.66-3351.23,1309.75-3351.15Z" transform="translate(2887.48 3968.98)"/><path class="cls-1" d="M666.32-3133.36c-3.33,0-6.68-.19-10,0-21.73,1.45-35.77-10.74-46.22-27.49-10.69-17.15-10.79-35.61-1-53.29,10.77-19.53,28-29.81,50.18-31.54,17.34-1.35,33.85,1,48.38,11.7,33.28,24.59,31.55,70.79-3,93.58-10.29,6.78-21,7.38-32.3,7C670.32-3133.41,668.32-3133.36,666.32-3133.36Zm-34.57-54.73c.12,20.63,14.68,34.41,36,34.09,20.84-.3,34.56-14,34.49-34.52s-13.85-33.88-34.93-34C645.81-3222.66,631.62-3208.93,631.75-3188.09Z" transform="translate(2887.48 3968.98)"/><path class="cls-1" d="M92.7-3409.87c-4.66-1.56-8-2.62-11.37-3.82-14.68-5.3-29.68-7.73-45.06-3.89-18.51,4.61-28.3,19-26.33,37.94,1.61,15.4,15,27.2,32.47,28.3a74.87,74.87,0,0,0,13-.19c11.18-1.28,12.45-3.37,9.9-15.59l-14.11-1.35v-18.72c7-2.17,30.78-2.63,43-.76a40.26,40.26,0,0,1,1.07,6.47c.12,10.66-.15,21.32.14,32,.15,5.25-1.57,8.94-6.12,11.55-24.78,14.22-66.6,16.32-91.65-7.21a54.57,54.57,0,0,1,6.13-85c10-7,21.32-10.66,33.43-12.11,16.86-2,33.15.41,49.13,5.83,4.27,1.44,6.7,3.78,6.46,8.66C92.5-3422.26,92.7-3416.65,92.7-3409.87Z" transform="translate(2887.48 3968.98)"/><path class="cls-1" d="M830.45-3184.43c14.08,14.1,18.67,32.79,28.18,50.47H827.4c-3-6.48-6-13.42-9.35-20.24a146.39,146.39,0,0,0-8-14.93c-4.85-7.56-11.83-10.11-21.5-7.37v42.4H760.76v-109.82a59.5,59.5,0,0,1,7.61-1c13.33-.1,26.66-.27,40,.08a60.06,60.06,0,0,1,16.69,2.51c12.39,4,20.37,12.7,22.36,25.7,1.89,12.39-3.24,22.06-13.62,29-.82.55-1.62,1.15-2.4,1.77A8,8,0,0,0,830.45-3184.43Zm-41.37-15.25a37.06,37.06,0,0,0,21.06,0c5.67-1.62,8.4-6.2,8.2-12.21-.19-5.86-3.4-10.43-9.4-11.12-6.42-.75-13-.17-19.86-.17Z" transform="translate(2887.48 3968.98)"/><path class="cls-1" d="M4.61-3176.7v42.61H-23.15V-3243.9a57.53,57.53,0,0,1,7.52-1c13.31-.1,26.63-.37,39.93.11a60.3,60.3,0,0,1,18.5,3.29c11.77,4.37,19.19,13.07,20.59,25.88,1.31,12-3.52,21.37-13.68,28-1.08.71-2.09,1.54-2.66,2,5.06,8.42,10.31,16.32,14.69,24.67s8,17.3,12.38,27H43.28c-2.91-6.38-6-13.3-9.22-20.15-2.14-4.5-4.31-9-6.87-13.28C22.47-3175.33,15.75-3179.25,4.61-3176.7Zm.6-21.41c7.22-.48,13.86-.33,20.26-1.51,5.84-1.08,8.9-5.91,8.94-11.65s-3-10.6-8.89-11.64c-6.71-1.18-13.66-2-20.31.46Z" transform="translate(2887.48 3968.98)"/><path class="cls-1" d="M1551.83-3184.42c9.82,11.07,23.37,37.17,25.91,50.2a17.6,17.6,0,0,1-3.62.78c-8.3.07-16.61,0-25.41,0-3.11-6.9-6-13.57-9.13-20.14a158.47,158.47,0,0,0-7.37-14.17c-4.79-7.92-11.66-11.6-22.41-9v41.22c-7.09,2.51-14.44,2.83-26.69,1.29-2-6.92-2.49-97.77-.55-109.74a30.72,30.72,0,0,1,5.53-1c14-.09,28-.34,42,.1a57.45,57.45,0,0,1,17.56,3.11c11.83,4.3,19.33,12.9,21,25.68,1.55,12.09-3.42,21.37-13.37,28.16a26.76,26.76,0,0,0-3,2.54C1552-3185.12,1552-3184.73,1551.83-3184.42Zm-41.34-39v25.17c7-.35,13.26-.09,19.36-1.13,6.76-1.15,10.25-6.48,9.78-13-.44-6-4.23-10.28-11-10.93C1522.83-3223.88,1516.89-3223.43,1510.49-3223.43Z" transform="translate(2887.48 3968.98)"/><path class="cls-1" d="M1630.3-3176.52v42.12c-9.63,1.73-18.37,1.21-27.77.41v-110a31.64,31.64,0,0,1,5.2-1c15,0,30-.21,44.91.13,8.74.2,17,2.29,24.26,7.82,16.62,12.75,16.25,37.75-.56,48.61-1.37.89-2.69,1.86-4.8,3.33,14.2,14.19,18.94,33,28.64,51h-31.4c-3.59-7.89-7-15.8-10.79-23.58a81.15,81.15,0,0,0-6.85-12.13C1646.22-3176.67,1639.54-3179.23,1630.3-3176.52Zm.49-46.91v25.18c6.88-.34,13.2-.07,19.3-1.1,6.76-1.13,10.36-6.51,9.94-12.92-.4-6-4.2-10.38-10.87-11C1643.31-3223.88,1637.35-3223.43,1630.79-3223.43Z" transform="translate(2887.48 3968.98)"/><path class="cls-1" d="M2140.79-3184.95c14.38,14.47,19.36,32.94,28.25,50.9h-31c-2.73-6.1-5.61-12.76-8.71-19.32-2.28-4.81-4.62-9.61-7.34-14.16-4.74-7.91-11.56-11.74-22.25-9.27v42.74h-28V-3244a46.69,46.69,0,0,1,6.31-.95c14-.07,28-.33,41.93.12a56.63,56.63,0,0,1,17.53,3.18c11.4,4.19,18.79,12.49,20.58,24.81s-3,22.1-13.35,29.07C2143.68-3187,2142.63-3186.25,2140.79-3184.95ZM2100-3198.41c4.92,0,8.85.07,12.78,0a31.85,31.85,0,0,0,5.93-.65c7-1.53,10.69-6,10.59-12.47s-4-11.1-11.16-11.79c-5.83-.56-11.75-.11-18.14-.11Z" transform="translate(2887.48 3968.98)"/><path class="cls-1" d="M-30.22-3329.11c-9.71,0-17.67.29-25.59-.19-2.09-.13-4.78-2.17-5.9-4.09-2.33-4-3.87-8.47-5.61-12.79-1.21-3-2.81-5.08-6.5-5.06-15,.1-29.92,0-45.36,0l-8.72,21.54H-157c1.2-3.58,2-6.4,3.06-9.09q18.84-46.8,37.76-93.58c3.7-9.14,3.75-9.29,13.7-9.1,7.55.14,15.1.82,22.65,1.26,3.17,6.57,6.5,13.07,9.48,19.73q18,40.13,35.71,80.33C-33.3-3337.11-32.19-3334-30.22-3329.11ZM-78-3371.56l-16.47-39.66-2.33.18c-4.84,12.84-9.69,25.68-14.89,39.48Z" transform="translate(2887.48 3968.98)"/><path class="cls-1" d="M986.1-3441.48c16.41,36.91,32.73,73.6,49.43,111.17-9.89,2.17-18.74,1.25-27.47.77-1.58-.09-3.44-2.81-4.4-4.71-2.12-4.14-3.38-8.74-5.71-12.73-1.12-1.91-3.87-4-5.93-4-14.95-.34-29.92-.18-45.37-.18-3,7.4-5.86,14.43-8.75,21.55H908.83c1.2-3.57,2-6.38,3.06-9.07q18.84-46.8,37.78-93.57c3.71-9.17,3.76-9.17,13.67-9.2C970.65-3441.5,978-3441.48,986.1-3441.48Zm-14.66,30.53-2.48,0-14.85,39.39h33.66C982-3385.39,976.74-3398.17,971.44-3410.95Z" transform="translate(2887.48 3968.98)"/><path class="cls-1" d="M1584.69-3441.46c10,0,18.94.2,27.88-.07,5.34-.17,6.5,3.59,8.12,7.24q12.55,28.23,25.13,56.46,8.72,19.57,17.36,39.19c1.16,2.62,2,5.39,3.29,9h-29.34c-3-6.76-6.13-13.65-9.63-21.45-15.46,0-31-.17-46.51.22-1.79,0-4.12,2.93-5.13,5-2.44,5.07-4.25,10.44-6.48,16.11h-29.73Zm18.08,30.43-2.38-.16-14.86,39.48h33.56Z" transform="translate(2887.48 3968.98)"/><path class="cls-1" d="M615-3350.67c-2.08,5.33-4.24,10.2-5.85,15.24-1.41,4.4-3.71,6.63-8.6,6.43-7.27-.3-14.55-.08-23.82-.08l45.33-112.38c9.82,0,18.8.14,27.76-.06,4.07-.1,6,2,7.4,5.34,2.87,6.74,5.9,13.41,8.88,20.1q16.85,37.89,33.68,75.77c1.44,3.24,2.65,6.58,4.32,10.73h-29.6c-3.07-6.85-6.18-13.78-9.45-21.09Zm7.67-20.46c12.1-.21,22.34,1,33.49-1-5.66-13.85-10.66-26.78-17.54-41.54C632.88-3398.35,628.07-3385.51,622.68-3371.13Z" transform="translate(2887.48 3968.98)"/><path class="cls-1" d="M211.4-3134.06H181.55c-1.92-4.58-3.82-9.86-6.36-14.81-1.06-2.07-3.46-4.84-5.32-4.89-15.56-.39-31.13-.22-46.93-.22L115.22-3134H86c1.1-3.35,1.86-6.13,2.93-8.79q18.75-46.76,37.58-93.46c3.49-8.65,3.54-8.64,13.08-8.69,3.66,0,7.39.45,11-.09,8.95-1.35,13.58,2.12,17.17,10.66,12.6,30,26.15,59.67,39.32,89.47C208.43-3141.72,209.66-3138.4,211.4-3134.06Zm-47.2-40.43c-5.19-14-10.75-27.14-17.61-42.55l-16,42.55Z" transform="translate(2887.48 3968.98)"/><path class="cls-1" d="M1397.36-3179.8v27h53.75V-3135c-6.77,2-68.14,2.66-82,.71v-109c7.77-2.11,69.12-2.47,80.55-.44v19.47h-52.2v23.64h49.72v20.81Z" transform="translate(2887.48 3968.98)"/><path class="cls-1" d="M1722.86-3133.31V-3243c7.63-2.45,71.23-2.75,81.06-.38v19.54h-52.61v22.58c16.41,2.51,33-.33,50.07,1.65V-3180h-49.94c-1.23,9.37-1,17.73-.19,27.24h54v18.89C1778.28-3132.75,1751.17-3133.64,1722.86-3133.31Z" transform="translate(2887.48 3968.98)"/><path class="cls-1" d="M1080.88-3133.94H1000c-2.08-7.13-2.54-98.39-.61-109.42,7-2,67.22-2.5,80-.55,1.82,6.18,1.52,12.54-.13,20.21h-52.09v23.28h50.24v20.28c-16.51,1.16-33.06-.14-50.13.8V-3153h53.6Z" transform="translate(2887.48 3968.98)"/><path class="cls-1" d="M2271.25-3200.25V-3180h-50.43v26.91h53.53V-3134h-80.66c-2.18-6.52-3-92.78-.84-110.6,26.51-.72,53.21-.19,80.54-.38v21h-52.54v23.79Z" transform="translate(2887.48 3968.98)"/><path class="cls-1" d="M1987.47-3441.06h79.92v19.84h-52.21v23.79h50.13v19.86c-16.29,2.14-32.86-.3-49,1.34-2.38,7.77-2.53,16.46-.32,26.62h52.9v19.91h-81C1985.73-3337,1985.27-3429,1987.47-3441.06Z" transform="translate(2887.48 3968.98)"/><path class="cls-1" d="M128.56-3330.35v-109.1c6.92-2.46,67.81-3.11,81-.82v18.38c-17,2.51-34.6-.53-52.49,1.68v22.36c16.26,1.42,32.79-.16,50,.92v19.56c-16.4,1.74-33-.43-50,1.27v26.47h54v18.79C203.69-3328.68,140.61-3328.22,128.56-3330.35Z" transform="translate(2887.48 3968.98)"/><path class="cls-1" d="M493.21-3409.21c-10-3.33-18.32-6.56-26.89-8.8a49.33,49.33,0,0,0-26.61.61c-17.52,5.14-27.34,18.59-25.83,35.45,1.42,15.94,14.77,28.84,32,30.51,11.4,1.1,22.58,0,33.18-4.86,4.47-2,9-3.89,14.6-6.3v23.42c-22.56,15.75-70.18,17.87-93.46-6.79-22-23.3-21-58.93,3.13-80.09,16.92-14.83,37.15-18.79,58.74-16.38,8.47.94,16.74,4,25,6.3,4.31,1.22,6.41,4.25,6.19,9C493-3421.54,493.21-3415.92,493.21-3409.21Z" transform="translate(2887.48 3968.98)"/><path class="cls-1" d="M1154.85-3408.54l-11.38-4.76c-13.86-5.83-28.07-8.3-42.82-3.88s-24.05,15.45-25,29.08c-1.39,19.37,12.54,35,32.81,36.73,11.44.95,22.57-.32,33.12-5.3,4.12-1.94,8.42-3.5,13.71-5.68v24.3c-26.63,12.66-53.91,16.32-81,1.48-33.84-18.56-38.12-64.32-9-89.67,16.65-14.52,36.59-18.5,57.84-16.3,8.48.88,16.78,3.8,25.08,6.12,4.66,1.3,7,4.54,6.7,9.71C1154.62-3421.16,1154.85-3415.57,1154.85-3408.54Z" transform="translate(2887.48 3968.98)"/><path class="cls-1" d="M1187.64-3238.14v21.95c-3.14-1-5.57-1.78-8-2.53-6.36-1.94-12.64-4.18-19.1-5.69a40.42,40.42,0,0,0-11.88-.73c-7.09.51-12.21,3.92-12.39,8.09-.28,6.17,4.51,8.5,9.09,10.54,9.72,4.33,19.81,7.91,29.28,12.71,14.88,7.54,20.84,20.64,17.63,36.52-2.72,13.42-15.39,23.89-29,23.92-9,0-18-.44-27,.14-7.66.49-14.29-1.63-21-4.9-4.37-2.14-6.9-4.64-6.5-9.87s.08-10.4.08-17.37c4.9,2.72,8,4.4,11,6.14,8.84,5,18.21,8.16,28.52,7.78a32.52,32.52,0,0,0,6.92-.73c4.06-1,7.43-3.25,8.34-7.68,1-4.62-1.75-7.69-5.32-9.83a80.82,80.82,0,0,0-9.91-4.67c-7.34-3.12-14.85-5.89-22.08-9.27-7.76-3.63-13.82-9.3-17.26-17.3-6.33-14.77-1-30.43,13.09-38.76,12.5-7.42,26.23-7.19,39.79-5.34C1170.76-3243.84,1179.19-3240.49,1187.64-3238.14Z" transform="translate(2887.48 3968.98)"/><path class="cls-1" d="M458.74-3215.62c-6.07-2.22-10.29-4.15-14.71-5.3a159.2,159.2,0,0,0-20.42-4.24,23.25,23.25,0,0,0-10.68,1.72c-7.71,3-8.39,9.38-1.61,14.27,2.65,1.91,5.87,3.07,8.9,4.41,8.52,3.75,17.32,7,25.56,11.24,11.46,6,18.05,15.42,18,28.86-.07,13.08-8.55,26-20.53,30.57-2.08.8-4.57.69-6.88.7-10,.07-20-.51-30,.21-8.15.58-14.89-2.36-21.79-5.69-2.94-1.42-4.91-3.21-4.85-6.76.1-5.91,0-11.83,0-19.41,4.56,2.44,7.7,4,10.75,5.77,8.83,5.06,18.19,8.19,28.5,7.82a32,32,0,0,0,6.92-.73c4-1.07,7.44-3.17,8.3-7.68s-1.65-7.71-5.29-9.83a90.53,90.53,0,0,0-9.91-4.67c-7.64-3.27-15.6-5.92-22.94-9.77-10.19-5.35-17.32-13.39-18.38-25.58-1.64-18.74,10.36-32.79,31.24-35.55a88.87,88.87,0,0,1,43.17,5.23c4.81,1.8,7,4.36,6.65,9.51C458.5-3226.27,458.74-3222,458.74-3215.62Z" transform="translate(2887.48 3968.98)"/><path class="cls-1" d="M1833.45-3165.13c5,2.72,8.16,4.37,11.25,6.14,9.16,5.25,18.93,8.16,29.55,7.49a22.94,22.94,0,0,0,7.73-1.61c7-3.09,8.21-10.25,2.39-15.13-2.74-2.29-6.22-3.79-9.54-5.24-8.23-3.59-16.8-6.45-24.79-10.49-11-5.57-18.14-14.24-18.86-27.3-.7-12.59,4.32-21.87,15-28.26,12.79-7.62,26.81-7.36,40.71-5.38,8.4,1.2,16.5,4.44,24.69,6.74v21.92c-3.82-1.25-6.87-2.34-10-3.23-6.69-1.93-13.37-4-20.16-5.51a27.89,27.89,0,0,0-8.94-.14c-7,.74-12.31,4.23-12.29,8.28,0,6,4.83,8.33,9.41,10.36,9.72,4.32,19.8,7.91,29.24,12.74,15.17,7.75,21.35,21.94,17.27,37.45a30.3,30.3,0,0,1-29.74,22.94c-10.31,0-20.63.11-30.94-.06-2.91,0-6.18-.18-8.66-1.47-14.87-7.69-13.28-2.63-13.39-20.25C1833.43-3157.76,1833.45-3160.38,1833.45-3165.13Z" transform="translate(2887.48 3968.98)"/><path class="cls-1" d="M519.84-3177.43V-3134H493.23c-2.15-6.81-2.81-96.18-.85-109.25.51-.42,1-1.2,1.53-1.2,18.94.17,38-.84,56.78,1,19,1.86,30.5,18.62,28.1,37-2.07,15.83-15.12,27.82-32.17,28.9C538.35-3177,530-3177.43,519.84-3177.43Zm.37-21.13c8.32,1,15.51,1.6,22.45-1.25,5.14-2.11,7.45-6.3,7.34-11.79s-2.69-9.35-8.39-10.83a39.57,39.57,0,0,0-21.4-.07Z" transform="translate(2887.48 3968.98)"/><path class="cls-1" d="M2045-3223.7H2005.3V-3134H1977c-.76-14.71-.26-29.52-.35-44.3-.09-14.6,0-29.21,0-45.1l-40.26-.8v-18.69c6.78-2.59,96.24-3.27,108.67-.74Z" transform="translate(2887.48 3968.98)"/><path class="cls-1" d="M971.84-3243.52V-3224H932.15v89.88c-9.61,1.21-18.36.82-28.46.21v-89.94H863.36v-19.5C871.65-3245.47,962.08-3245.65,971.84-3243.52Z" transform="translate(2887.48 3968.98)"/><path class="cls-1" d="M1273.85-3223.7h-40.29v-19.48c7.2-2.2,94.6-2.79,107.31-.81,2.47,7.42,2.54,10.48.09,20.26h-38.82v89c-9.52,2.68-18.29.73-28.29,1.44Z" transform="translate(2887.48 3968.98)"/><path class="cls-1" d="M-158.14-3244.32H-49.81V-3224h-40v90h-27.9c-1.28-29.33.06-58.74-.75-88.85-13.2-2.19-26.16.19-39.7-1.6Z" transform="translate(2887.48 3968.98)"/><path class="cls-1" d="M1717.4-3349.79h56.77v19.07c-7.23,2-69.66,2.59-83.43.84-2.21-6.94-2.8-98.58-.57-110.88h26.52c1.52,9.68.5,19.59.67,29.4.18,10.33,0,20.66,0,31Z" transform="translate(2887.48 3968.98)"/><path class="cls-1" d="M1214.66-3329.71h-25.24c-2.06-7.8-2.33-100.73-.27-111.14h25.25C1216.48-3433,1216.74-3340.08,1214.66-3329.71Z" transform="translate(2887.48 3968.98)"/><path class="cls-1" d="M527.49-3441.48c6,0,11.68-.05,17.31,0,2.62,0,5.24.28,7.72.42,2.18,7.46,2.66,99.17.57,111.25H527.82C525.69-3337,525.22-3428.91,527.49-3441.48Z" transform="translate(2887.48 3968.98)"/><path class="cls-1" d="M194.56-3452.78c-14,6.26-18.78-5-26.13-11.59-8.39,5.06-12.61,18.5-25.67,12.17.66-4.29,10.54-24.17,13.49-26.21a10.14,10.14,0,0,1,4.56-1.5c2.3-.26,4.69.18,7-.17,8.34-1.27,13.78,1.72,17.13,9.73C187.42-3464.33,191.18-3458.83,194.56-3452.78Z" transform="translate(2887.48 3968.98)"/></svg>